<?xml version="1.0" encoding="iso-8859-1"?>
<!-- Uploaded to: SVG Repo, www.svgrepo.com, Generator: SVG Repo Mixer Tools -->
<svg fill="#000000" height="800px" width="800px" version="1.1" id="Capa_1" xmlns="http://www.w3.org/2000/svg" xmlns:xlink="http://www.w3.org/1999/xlink" 
	 viewBox="0 0 60 60" xml:space="preserve">
<g>
	<g>
		<g>
			<path d="M41,53h-2v-5V10c0-0.2-0.1-0.5-0.2-0.6l-2.9-8.7C35.8,0.3,35.4,0,35,0s-0.8,0.3-0.9,0.7l-2.9,8.7C31.1,9.6,31,9.8,31,10
				v38v11c0,0.6,0.4,1,1,1h6c0.6,0,1-0.4,1-1v-4h3c0.6,0,1-0.4,1-1V24h-2V53z M33,11h4v36h-4V11z M35,4.2L36.6,9h-3.2L35,4.2z
				 M37,58h-4v-9h4V58z"/>
			<path d="M59,0H48c-0.6,0-1,0.4-1,1v58c0,0.6,0.4,1,1,1h11c0.6,0,1-0.4,1-1V1C60,0.4,59.6,0,59,0z M58,58h-9v-7h5v-2h-5v-8h5v-2
				h-5v-8h5v-2h-5v-8h5v-2h-5v-8h5V9h-5V2h9V58z"/>
			<path d="M14,10C6.3,10,0,16.3,0,24c0,5.4,3.1,10.3,8,12.6V44v5c0,0.6,0.4,1,1,1h4v3h2v-3h4c0.6,0,1-0.4,1-1v-5v-7.4
				c4.9-2.3,8-7.2,8-12.6C28,16.3,21.7,10,14,10z M18,48h-8v-3h8V48z M18.6,35.1C18.2,35.2,18,35.6,18,36v7h-8v-2h5v-2h-5v-3
				c0-0.4-0.2-0.8-0.6-0.9C4.9,33.2,2,28.8,2,24c0-6.6,5.4-12,12-12s12,5.4,12,12C26,28.8,23.1,33.2,18.6,35.1z"/>
			<polygon points="16.3,18.3 14,20.6 11.7,18.3 10.3,19.7 13,22.4 13,33 15,33 15,22.4 17.7,19.7 			"/>
		</g>
	</g>
	<g>
	</g>
	<g>
	</g>
	<g>
	</g>
	<g>
	</g>
	<g>
	</g>
	<g>
	</g>
	<g>
	</g>
	<g>
	</g>
	<g>
	</g>
	<g>
	</g>
	<g>
	</g>
	<g>
	</g>
	<g>
	</g>
	<g>
	</g>
	<g>
	</g>
</g>
</svg>