<?xml version="1.0" encoding="iso-8859-1"?>
<!-- Uploaded to: SVG Repo, www.svgrepo.com, Generator: SVG Repo Mixer Tools -->
<svg fill="#000000" height="800px" width="800px" version="1.1" id="Capa_1" xmlns="http://www.w3.org/2000/svg" xmlns:xlink="http://www.w3.org/1999/xlink" 
	 viewBox="0 0 60 60" xml:space="preserve">
<g>
	<g>
		<g>
			<path d="M30,0C17,0,6,11,6,24.1V47c0,0.6,0.4,1,1,1h21v12h2V48h4v-2h-5H8V24.1C8,12.1,18.1,2,30,2c11.4,0,21,9.5,22,21.5V60h2
				V23.4C52.9,10.3,42.4,0,30,0z"/>
			<path d="M16,23v8c0,0.6,0.4,1,1,1h4v-2h-3v-7H16z"/>
			<path d="M43,23h-6c-1.7,0-3,1.3-3,3v3c0,1.7,1.3,3,3,3h2v7H27v-1c0-0.6-0.4-1-1-1H14c-0.6,0-1,0.4-1,1v4c0,0.6,0.4,1,1,1h12
				c0.6,0,1-0.4,1-1v-1h13c0.6,0,1-0.4,1-1v-8h2c1.7,0,3-1.3,3-3v-3C46,24.3,44.7,23,43,23z M25,41H15v-2h10V41z M44,29
				c0,0.6-0.4,1-1,1h-6c-0.6,0-1-0.4-1-1v-3c0-0.6,0.4-1,1-1h6c0.6,0,1,0.4,1,1V29z"/>
		</g>
	</g>
	<g>
	</g>
	<g>
	</g>
	<g>
	</g>
	<g>
	</g>
	<g>
	</g>
	<g>
	</g>
	<g>
	</g>
	<g>
	</g>
	<g>
	</g>
	<g>
	</g>
	<g>
	</g>
	<g>
	</g>
	<g>
	</g>
	<g>
	</g>
	<g>
	</g>
</g>
</svg>